<svg width="176" height="89" viewBox="0 0 176 89" fill="none" xmlns="http://www.w3.org/2000/svg">
<path d="M8.928 61.408H6.048L6.312 60.616C6.04 60.44 5.832 60.16 5.688 59.776C5.544 59.392 5.472 58.952 5.472 58.456C5.472 57.736 5.472 57.016 5.472 56.296C5.472 55.576 5.472 54.856 5.472 54.136C5.472 53.416 5.472 52.696 5.472 51.976C5.472 51.256 5.472 50.528 5.472 49.792H8.352L8.088 50.584C8.36 50.76 8.568 51.04 8.712 51.424C8.856 51.808 8.928 52.248 8.928 52.744C8.928 53.48 8.928 54.2 8.928 54.904C8.928 55.608 8.928 56.328 8.928 57.064C8.928 57.784 8.928 58.512 8.928 59.248C8.928 59.968 8.928 60.688 8.928 61.408ZM13.08 64H2.52C2.28 64 2.072 63.96 1.896 63.88C1.72 63.784 1.576 63.656 1.464 63.496C1.368 63.32 1.296 63.12 1.248 62.896C1.2 62.656 1.176 62.384 1.176 62.08C1.176 61.904 1.184 61.744 1.2 61.6C1.216 61.44 1.232 61.288 1.248 61.144C1.264 60.984 1.288 60.856 1.32 60.76H10.008C10.856 60.76 11.512 60.864 11.976 61.072C12.44 61.264 12.76 61.536 12.936 61.888C13.128 62.224 13.224 62.608 13.224 63.04C13.224 63.152 13.216 63.264 13.2 63.376C13.2 63.472 13.184 63.576 13.152 63.688C13.136 63.8 13.112 63.904 13.08 64ZM1.272 47.2H11.88C12.472 47.2 12.84 47.4 12.984 47.8C13.144 48.184 13.224 48.656 13.224 49.216C13.224 49.312 13.216 49.408 13.2 49.504C13.2 49.6 13.192 49.704 13.176 49.816C13.176 49.928 13.16 50.032 13.128 50.128C13.112 50.224 13.088 50.328 13.056 50.44H4.416C3.312 50.44 2.496 50.264 1.968 49.912C1.44 49.544 1.176 48.944 1.176 48.112C1.176 48.032 1.176 47.952 1.176 47.872C1.192 47.776 1.2 47.688 1.2 47.608C1.216 47.528 1.224 47.456 1.224 47.392C1.24 47.312 1.256 47.248 1.272 47.2ZM27.4706 64C27.2466 64.048 27.0386 64.08 26.8466 64.096C26.6546 64.112 26.4466 64.12 26.2226 64.12C25.6146 64.12 25.0946 64.032 24.6626 63.856C24.2466 63.68 23.9266 63.36 23.7026 62.896C23.4946 62.416 23.3906 61.752 23.3906 60.904C23.3906 60.28 23.4226 59.656 23.4866 59.032C23.5506 58.392 23.6306 57.744 23.7266 57.088C23.8386 56.416 23.9586 55.712 24.0866 54.976C23.9586 54.784 23.8146 54.64 23.6546 54.544C23.5106 54.448 23.3426 54.4 23.1506 54.4C22.7666 54.4 22.3826 54.504 21.9986 54.712C21.6306 54.92 21.2626 55.256 20.8946 55.72C20.5426 56.184 20.1906 56.8 19.8386 57.568C19.5026 58.336 19.1746 59.288 18.8546 60.424V54.976H19.4786C19.7986 54.176 20.2066 53.464 20.7026 52.84C21.1986 52.216 21.7586 51.72 22.3826 51.352C23.0066 50.984 23.6466 50.8 24.3026 50.8C24.6866 50.8 25.0386 50.92 25.3586 51.16C25.6786 51.384 25.9586 51.688 26.1986 52.072C26.4386 52.456 26.6306 52.88 26.7746 53.344C26.9186 53.808 26.9906 54.272 26.9906 54.736C26.9906 55.344 26.9906 55.96 26.9906 56.584C26.9906 57.208 26.9906 57.832 26.9906 58.456C26.9906 59.064 26.9906 59.68 26.9906 60.304C26.9906 61.04 27.0226 61.672 27.0866 62.2C27.1506 62.728 27.2786 63.328 27.4706 64ZM19.3346 64.024C19.2226 64.04 19.1106 64.048 18.9986 64.048C18.9026 64.064 18.8066 64.072 18.7106 64.072C18.6146 64.072 18.5106 64.072 18.3986 64.072C17.9666 64.072 17.5986 64.032 17.2946 63.952C16.9906 63.856 16.7506 63.72 16.5746 63.544C16.3986 63.368 16.2706 63.16 16.1906 62.92C16.1266 62.68 16.0946 62.408 16.0946 62.104C16.0946 61.304 16.0946 60.536 16.0946 59.8C16.0946 59.048 16.0946 58.32 16.0946 57.616C16.0946 56.896 16.0946 56.192 16.0946 55.504C16.0946 54.8 16.0946 54.104 16.0946 53.416C16.0946 52.984 16.0626 52.56 15.9986 52.144C15.9346 51.728 15.8146 51.376 15.6386 51.088C15.7666 51.056 15.8786 51.032 15.9746 51.016C16.0866 51 16.1986 50.984 16.3106 50.968C16.4226 50.952 16.5266 50.944 16.6226 50.944C17.1506 50.944 17.6226 51.064 18.0386 51.304C18.4546 51.528 18.7746 51.92 18.9986 52.48C19.2226 53.04 19.3346 53.824 19.3346 54.832C19.3346 55.872 19.3346 56.936 19.3346 58.024C19.3346 59.096 19.3346 60.144 19.3346 61.168C19.3346 62.176 19.3346 63.128 19.3346 64.024ZM29.9093 51.088H40.3253C40.9333 51.088 41.3493 51.232 41.5733 51.52C41.8133 51.792 41.9333 52.288 41.9333 53.008C41.9333 53.168 41.9253 53.328 41.9093 53.488C41.8933 53.648 41.8773 53.8 41.8613 53.944C41.8453 54.072 41.8213 54.2 41.7893 54.328H33.7253C32.9733 54.328 32.3413 54.28 31.8293 54.184C31.3333 54.088 30.9333 53.936 30.6293 53.728C30.3413 53.504 30.1333 53.224 30.0053 52.888C29.8933 52.552 29.8373 52.152 29.8373 51.688C29.8373 51.608 29.8373 51.536 29.8373 51.472C29.8533 51.392 29.8613 51.32 29.8613 51.256C29.8773 51.192 29.8933 51.136 29.9093 51.088ZM41.7893 60.232C41.8213 60.36 41.8453 60.504 41.8613 60.664C41.8773 60.808 41.8853 60.944 41.8853 61.072C41.8853 61.616 41.8133 62.08 41.6693 62.464C41.5252 62.848 41.3093 63.184 41.0213 63.472C40.8933 63.6 40.7333 63.72 40.5413 63.832C40.3653 63.928 40.1493 64.008 39.8933 64.072C39.6533 64.152 39.3813 64.208 39.0773 64.24C38.7733 64.288 38.4293 64.312 38.0453 64.312C37.3253 64.312 36.6613 64.208 36.0533 64C35.4453 63.808 34.9173 63.528 34.4693 63.16C34.0213 62.792 33.6773 62.36 33.4373 61.864C33.1973 61.352 33.0773 60.784 33.0773 60.16C33.0773 59.264 33.0773 58.368 33.0773 57.472C33.0773 56.56 33.0773 55.664 33.0773 54.784C33.0773 53.888 33.0773 52.992 33.0773 52.096C33.0773 51.184 33.0773 50.288 33.0773 49.408C33.0773 49.024 33.0533 48.648 33.0053 48.28C32.9733 47.912 32.8933 47.552 32.7653 47.2C33.0213 47.12 33.2773 47.064 33.5333 47.032C33.7893 47 34.0373 46.984 34.2773 46.984C34.6613 46.984 35.0053 47.072 35.3093 47.248C35.6133 47.408 35.8533 47.664 36.0293 48.016C36.2213 48.352 36.3173 48.784 36.3173 49.312C36.3173 50.208 36.3173 51.088 36.3173 51.952C36.3173 52.816 36.3173 53.688 36.3173 54.568C36.3173 55.448 36.3173 56.328 36.3173 57.208C36.3173 58.072 36.3173 58.944 36.3173 59.824C36.3173 60.016 36.3253 60.192 36.3413 60.352C36.3573 60.512 36.3893 60.664 36.4373 60.808C36.6773 60.904 36.9093 60.976 37.1333 61.024C37.3733 61.056 37.6373 61.072 37.9253 61.072C38.4533 61.072 38.9253 61.048 39.3413 61C39.7573 60.952 40.1413 60.864 40.4933 60.736C40.8613 60.608 41.2453 60.44 41.6453 60.232H41.7893ZM50.9719 50.728C52.0919 50.728 53.0439 50.96 53.8279 51.424C54.6119 51.872 55.2119 52.504 55.6279 53.32C56.0599 54.12 56.2759 55.048 56.2759 56.104V56.224C56.2759 56.832 56.2359 57.296 56.1559 57.616C56.0919 57.936 55.9959 58.152 55.8679 58.264C55.7399 58.36 55.5959 58.408 55.4359 58.408H50.0839C49.6039 58.408 49.1719 58.344 48.7879 58.216C48.4199 58.088 48.1159 57.92 47.8759 57.712L47.3959 57.952L47.4919 56.464H53.0119C53.0439 56.352 53.0599 56.232 53.0599 56.104C53.0759 55.96 53.0839 55.832 53.0839 55.72C53.0839 55.336 53.0439 54.976 52.9639 54.64C52.8839 54.288 52.7399 53.976 52.5319 53.704C52.3399 53.624 52.1559 53.568 51.9799 53.536C51.8039 53.504 51.5479 53.488 51.2119 53.488C50.1719 53.488 49.3319 53.896 48.6919 54.712C48.0519 55.528 47.7319 56.768 47.7319 58.432V58.552C47.7319 59.016 47.7639 59.44 47.8279 59.824C47.9079 60.192 48.0199 60.528 48.1639 60.832C48.5479 61.024 48.9799 61.168 49.4599 61.264C49.9559 61.344 50.5559 61.384 51.2599 61.384C51.7879 61.384 52.2999 61.352 52.7959 61.288C53.2919 61.208 53.7719 61.088 54.2359 60.928C54.7159 60.768 55.1719 60.56 55.6039 60.304H55.7479C55.7799 60.448 55.8039 60.592 55.8199 60.736C55.8359 60.88 55.8439 61.024 55.8439 61.168C55.8439 61.664 55.7719 62.08 55.6279 62.416C55.4999 62.752 55.3079 63.048 55.0519 63.304C54.7959 63.56 54.4679 63.768 54.0679 63.928C53.6679 64.072 53.2279 64.176 52.7479 64.24C52.2679 64.32 51.7639 64.36 51.2359 64.36C50.2439 64.36 49.3319 64.208 48.4999 63.904C47.6839 63.6 46.9719 63.168 46.3639 62.608C45.7719 62.048 45.3079 61.368 44.9719 60.568C44.6519 59.768 44.4919 58.872 44.4919 57.88V57.736C44.4919 56.712 44.6519 55.776 44.9719 54.928C45.2919 54.064 45.7399 53.32 46.3159 52.696C46.9079 52.072 47.5959 51.592 48.3799 51.256C49.1799 50.904 50.0439 50.728 50.9719 50.728ZM59.1705 60.76H66.3225C67.5065 60.76 68.4425 60.856 69.1305 61.048C69.8345 61.24 70.3465 61.512 70.6665 61.864C70.9865 62.216 71.1465 62.624 71.1465 63.088C71.1465 63.2 71.1385 63.304 71.1225 63.4C71.1225 63.496 71.1065 63.6 71.0745 63.712C71.0585 63.808 71.0345 63.904 71.0025 64H61.4025C60.7785 64 60.2985 63.928 59.9625 63.784C59.6265 63.64 59.3945 63.4 59.2665 63.064C59.1385 62.728 59.0745 62.272 59.0745 61.696C59.0745 61.568 59.0745 61.456 59.0745 61.36C59.0905 61.248 59.1065 61.144 59.1225 61.048C59.1385 60.952 59.1545 60.856 59.1705 60.76ZM59.3145 46C59.7305 45.952 60.2105 45.912 60.7545 45.88C61.2985 45.848 61.8425 45.824 62.3865 45.808C62.9465 45.776 63.4185 45.76 63.8025 45.76C64.5545 45.76 65.1625 45.832 65.6265 45.976C66.1065 46.104 66.4585 46.336 66.6825 46.672C66.9225 47.008 67.0425 47.496 67.0425 48.136C67.0425 49.24 67.0425 50.352 67.0425 51.472C67.0425 52.576 67.0425 53.688 67.0425 54.808C67.0425 55.928 67.0425 57.048 67.0425 58.168C67.0425 59.272 67.0425 60.376 67.0425 61.48H64.1385L64.5225 60.616C64.2825 60.312 64.0985 59.952 63.9705 59.536C63.8585 59.104 63.8025 58.584 63.8025 57.976C63.8025 57.208 63.8025 56.448 63.8025 55.696C63.8025 54.928 63.8025 54.16 63.8025 53.392C63.8025 52.624 63.8025 51.848 63.8025 51.064C63.8025 50.28 63.8025 49.512 63.8025 48.76L63.7065 48.664C62.8585 48.872 62.1705 49.024 61.6425 49.12C61.1305 49.216 60.7385 49.264 60.4665 49.264C60.2105 49.264 59.9785 49.208 59.7705 49.096C59.5625 48.968 59.4025 48.768 59.2905 48.496C59.1785 48.208 59.1225 47.824 59.1225 47.344C59.1225 47.104 59.1385 46.864 59.1705 46.624C59.2025 46.384 59.2505 46.176 59.3145 46ZM73.5611 60.76H80.7131C81.8971 60.76 82.8331 60.856 83.5211 61.048C84.2251 61.24 84.7371 61.512 85.0571 61.864C85.3771 62.216 85.5371 62.624 85.5371 63.088C85.5371 63.2 85.5291 63.304 85.5131 63.4C85.5131 63.496 85.4971 63.6 85.4651 63.712C85.4491 63.808 85.4251 63.904 85.3931 64H75.7931C75.1691 64 74.6891 63.928 74.3531 63.784C74.0171 63.64 73.7851 63.4 73.6571 63.064C73.5291 62.728 73.4651 62.272 73.4651 61.696C73.4651 61.568 73.4651 61.456 73.4651 61.36C73.4811 61.248 73.4971 61.144 73.5131 61.048C73.5291 60.952 73.5451 60.856 73.5611 60.76ZM73.7051 46C74.1211 45.952 74.6011 45.912 75.1451 45.88C75.6891 45.848 76.2331 45.824 76.7771 45.808C77.3371 45.776 77.8091 45.76 78.1931 45.76C78.9451 45.76 79.5531 45.832 80.0171 45.976C80.4971 46.104 80.8491 46.336 81.0731 46.672C81.3131 47.008 81.4331 47.496 81.4331 48.136C81.4331 49.24 81.4331 50.352 81.4331 51.472C81.4331 52.576 81.4331 53.688 81.4331 54.808C81.4331 55.928 81.4331 57.048 81.4331 58.168C81.4331 59.272 81.4331 60.376 81.4331 61.48H78.5291L78.9131 60.616C78.6731 60.312 78.4891 59.952 78.3611 59.536C78.2491 59.104 78.1931 58.584 78.1931 57.976C78.1931 57.208 78.1931 56.448 78.1931 55.696C78.1931 54.928 78.1931 54.16 78.1931 53.392C78.1931 52.624 78.1931 51.848 78.1931 51.064C78.1931 50.28 78.1931 49.512 78.1931 48.76L78.0971 48.664C77.2491 48.872 76.5611 49.024 76.0331 49.12C75.5211 49.216 75.1291 49.264 74.8571 49.264C74.6011 49.264 74.3691 49.208 74.1611 49.096C73.9531 48.968 73.7931 48.768 73.6811 48.496C73.5691 48.208 73.5131 47.824 73.5131 47.344C73.5131 47.104 73.5291 46.864 73.5611 46.624C73.5931 46.384 73.6411 46.176 73.7051 46ZM93.1118 61.024L93.3038 60.616C93.0638 60.328 92.8798 59.968 92.7518 59.536C92.6398 59.104 92.5838 58.584 92.5838 57.976C92.5838 57.656 92.5838 57.352 92.5838 57.064C92.5838 56.76 92.5838 56.456 92.5838 56.152C92.5838 55.832 92.5838 55.528 92.5838 55.24C92.5838 54.936 92.5838 54.632 92.5838 54.328C92.5838 54.024 92.5838 53.728 92.5838 53.44L92.4878 53.344C91.9278 53.632 91.4318 53.856 90.9998 54.016C90.5838 54.176 90.2318 54.288 89.9438 54.352C89.6558 54.416 89.4158 54.448 89.2238 54.448C88.9838 54.448 88.7598 54.384 88.5518 54.256C88.3438 54.112 88.1838 53.896 88.0718 53.608C87.9598 53.304 87.9038 52.912 87.9038 52.432C87.9038 52.192 87.9198 51.952 87.9518 51.712C87.9838 51.472 88.0318 51.264 88.0958 51.088C88.4958 51.04 88.9678 51 89.5117 50.968C90.0718 50.936 90.6238 50.912 91.1678 50.896C91.7278 50.864 92.1998 50.848 92.5838 50.848C93.3358 50.848 93.9438 50.92 94.4078 51.064C94.8878 51.192 95.2398 51.424 95.4638 51.76C95.7038 52.096 95.8238 52.584 95.8238 53.224C95.8238 53.784 95.8238 54.336 95.8238 54.88C95.8238 55.408 95.8238 55.952 95.8238 56.512C95.8238 57.056 95.8238 57.608 95.8238 58.168C95.8238 58.728 95.8238 59.28 95.8238 59.824C95.8238 60.368 95.8238 60.92 95.8238 61.48L93.1118 61.024ZM87.9518 60.76H95.1038C96.2878 60.76 97.2238 60.856 97.9118 61.048C98.6158 61.24 99.1278 61.512 99.4478 61.864C99.7678 62.216 99.9278 62.624 99.9278 63.088C99.9278 63.2 99.9198 63.304 99.9037 63.4C99.9037 63.496 99.8878 63.6 99.8558 63.712C99.8398 63.808 99.8158 63.904 99.7838 64H90.1838C89.5598 64 89.0798 63.928 88.7438 63.784C88.4078 63.64 88.1758 63.4 88.0478 63.064C87.9198 62.728 87.8558 62.272 87.8558 61.696C87.8558 61.568 87.8558 61.456 87.8558 61.36C87.8718 61.248 87.8878 61.144 87.9038 61.048C87.9198 60.952 87.9358 60.856 87.9518 60.76ZM91.9598 45.928C92.0878 45.88 92.2398 45.832 92.4158 45.784C92.5918 45.736 92.7678 45.696 92.9438 45.664C93.1358 45.632 93.3278 45.608 93.5198 45.592C93.7278 45.576 93.9278 45.568 94.1198 45.568C94.8238 45.568 95.3998 45.688 95.8478 45.928C96.2958 46.152 96.5198 46.568 96.5198 47.176V48.832C96.3918 48.88 96.2478 48.928 96.0878 48.976C95.9438 49.024 95.7838 49.064 95.6078 49.096C95.4478 49.128 95.2798 49.152 95.1038 49.168C94.9438 49.184 94.7758 49.192 94.5998 49.192C93.8318 49.192 93.1998 49.016 92.7038 48.664C92.2078 48.312 91.9598 47.848 91.9598 47.272V45.928ZM103.038 50.896C103.534 50.896 103.95 50.952 104.286 51.064C104.622 51.16 104.886 51.328 105.078 51.568C105.286 51.792 105.398 52.088 105.414 52.456C105.558 53.976 105.718 55.304 105.894 56.44C106.086 57.576 106.318 58.568 106.59 59.416C106.862 60.248 107.198 60.976 107.598 61.6H107.79C108.142 61.104 108.462 60.576 108.75 60.016C109.054 59.456 109.31 58.856 109.518 58.216C109.726 57.576 109.894 56.888 110.022 56.152C110.166 55.416 110.27 54.632 110.334 53.8C110.398 52.952 110.422 52.048 110.406 51.088C110.646 51.008 110.886 50.96 111.126 50.944C111.366 50.912 111.606 50.896 111.846 50.896C112.358 50.896 112.774 50.984 113.094 51.16C113.414 51.32 113.646 51.568 113.79 51.904C113.934 52.224 113.974 52.632 113.91 53.128C113.798 54.376 113.606 55.56 113.334 56.68C113.062 57.784 112.718 58.808 112.302 59.752C111.902 60.68 111.438 61.52 110.91 62.272C110.398 63.008 109.822 63.624 109.182 64.12C108.99 64.168 108.758 64.2 108.486 64.216C108.214 64.232 107.926 64.24 107.622 64.24C107.318 64.24 107.046 64.208 106.806 64.144C106.566 64.08 106.334 63.976 106.11 63.832C105.902 63.688 105.678 63.472 105.438 63.184C105.038 62.704 104.67 62.168 104.334 61.576C103.998 60.984 103.702 60.328 103.446 59.608C103.19 58.872 102.95 58.072 102.726 57.208C102.518 56.344 102.334 55.408 102.174 54.4C102.03 53.376 101.886 52.272 101.742 51.088C101.918 51.008 102.126 50.96 102.366 50.944C102.622 50.912 102.846 50.896 103.038 50.896ZM117.621 50.92C118.229 50.92 118.741 51.016 119.157 51.208C119.573 51.384 119.885 51.704 120.093 52.168C120.317 52.616 120.429 53.272 120.429 54.136C120.429 54.616 120.413 55.088 120.381 55.552C120.349 56.016 120.301 56.496 120.237 56.992C120.173 57.472 120.101 57.968 120.021 58.48C119.941 58.976 119.845 59.504 119.733 60.064C119.877 60.256 120.021 60.4 120.165 60.496C120.325 60.592 120.501 60.64 120.693 60.64C121.077 60.64 121.453 60.536 121.821 60.328C122.205 60.104 122.573 59.736 122.925 59.224C123.293 58.712 123.629 58.016 123.933 57.136C124.237 56.256 124.509 55.152 124.749 53.824V60.064H124.389C124.085 60.864 123.677 61.576 123.165 62.2C122.653 62.824 122.085 63.32 121.461 63.688C120.837 64.056 120.189 64.24 119.517 64.24C119.149 64.24 118.805 64.128 118.485 63.904C118.165 63.664 117.885 63.352 117.645 62.968C117.405 62.584 117.213 62.16 117.069 61.696C116.925 61.232 116.853 60.768 116.853 60.304C116.853 59.68 116.853 59.064 116.853 58.456C116.853 57.832 116.853 57.208 116.853 56.584C116.853 55.96 116.853 55.344 116.853 54.736C116.853 54 116.813 53.376 116.733 52.864C116.669 52.336 116.549 51.728 116.373 51.04C116.581 51.008 116.781 50.984 116.973 50.968C117.165 50.936 117.381 50.92 117.621 50.92ZM125.445 50.968C126.021 50.968 126.477 51.056 126.813 51.232C127.149 51.392 127.389 51.624 127.533 51.928C127.677 52.232 127.749 52.6 127.749 53.032C127.749 54.072 127.749 55.08 127.749 56.056C127.749 57.032 127.749 57.976 127.749 58.888C127.749 59.8 127.749 60.712 127.749 61.624C127.749 61.896 127.757 62.184 127.773 62.488C127.805 62.776 127.853 63.056 127.917 63.328C127.997 63.584 128.085 63.808 128.181 64C128.085 64.016 127.981 64.032 127.869 64.048C127.757 64.08 127.645 64.096 127.533 64.096C127.437 64.112 127.333 64.12 127.221 64.12C126.693 64.12 126.221 64 125.805 63.76C125.405 63.52 125.093 63.12 124.869 62.56C124.645 61.984 124.533 61.2 124.533 60.208C124.533 59.152 124.533 58.096 124.533 57.04C124.533 55.968 124.533 54.928 124.533 53.92C124.533 52.896 124.533 51.936 124.533 51.04C124.661 51.008 124.773 50.992 124.869 50.992C124.965 50.992 125.053 50.992 125.133 50.992C125.229 50.976 125.333 50.968 125.445 50.968ZM137.316 50.728C138.436 50.728 139.388 50.96 140.172 51.424C140.956 51.872 141.556 52.504 141.972 53.32C142.404 54.12 142.62 55.048 142.62 56.104V56.224C142.62 56.832 142.58 57.296 142.5 57.616C142.436 57.936 142.34 58.152 142.212 58.264C142.084 58.36 141.94 58.408 141.78 58.408H136.428C135.948 58.408 135.516 58.344 135.132 58.216C134.764 58.088 134.46 57.92 134.22 57.712L133.74 57.952L133.836 56.464H139.356C139.388 56.352 139.404 56.232 139.404 56.104C139.42 55.96 139.428 55.832 139.428 55.72C139.428 55.336 139.388 54.976 139.308 54.64C139.228 54.288 139.084 53.976 138.876 53.704C138.684 53.624 138.5 53.568 138.324 53.536C138.148 53.504 137.892 53.488 137.556 53.488C136.516 53.488 135.676 53.896 135.036 54.712C134.396 55.528 134.076 56.768 134.076 58.432V58.552C134.076 59.016 134.108 59.44 134.172 59.824C134.252 60.192 134.364 60.528 134.508 60.832C134.892 61.024 135.324 61.168 135.804 61.264C136.3 61.344 136.9 61.384 137.604 61.384C138.132 61.384 138.644 61.352 139.14 61.288C139.636 61.208 140.116 61.088 140.58 60.928C141.06 60.768 141.516 60.56 141.948 60.304H142.092C142.124 60.448 142.148 60.592 142.164 60.736C142.18 60.88 142.188 61.024 142.188 61.168C142.188 61.664 142.116 62.08 141.972 62.416C141.844 62.752 141.652 63.048 141.396 63.304C141.14 63.56 140.812 63.768 140.412 63.928C140.012 64.072 139.572 64.176 139.092 64.24C138.612 64.32 138.108 64.36 137.58 64.36C136.588 64.36 135.676 64.208 134.844 63.904C134.028 63.6 133.316 63.168 132.708 62.608C132.116 62.048 131.652 61.368 131.316 60.568C130.996 59.768 130.836 58.872 130.836 57.88V57.736C130.836 56.712 130.996 55.776 131.316 54.928C131.636 54.064 132.084 53.32 132.66 52.696C133.252 52.072 133.94 51.592 134.724 51.256C135.524 50.904 136.388 50.728 137.316 50.728Z" fill="black"/>
<g clip-path="url(#clip0_32_2)">
<path d="M71.0308 39.0103C58.0996 38.9942 47.6212 34.5737 47.6299 27.5211L47.6442 16.061L94.4743 16.1191L94.4601 27.5792C94.4527 33.5052 83.962 39.0263 71.0308 39.0103Z" fill="#203442"/>
<path d="M103.802 11.5364L75.3079 0.926787C73.7562 0.349529 72.0516 0.0483648 70.3239 0.0462211C68.5961 0.0440773 66.8908 0.341011 65.3376 0.914416L36.817 11.4533C35.9689 11.7664 35.2573 12.2578 34.767 12.8691C34.2767 13.4803 34.0282 14.1857 34.0512 14.9013C34.0742 15.6168 34.3676 16.3124 34.8966 16.9054C35.4256 17.4983 36.1679 17.9637 37.0352 18.246L40.842 19.4907L65.8226 27.6343C67.2338 28.0943 68.7532 28.3324 70.2888 28.3344C71.8243 28.3363 73.3443 28.1019 74.7566 27.6454L99.7574 19.5638L103.567 18.3331C104.437 18.0535 105.182 17.5901 105.714 16.9979C106.245 16.4058 106.541 15.71 106.566 14.9936C106.591 14.2772 106.344 13.5703 105.853 12.9573C105.363 12.3443 104.651 11.8511 103.802 11.5364Z" fill="#4C5665"/>
<path d="M94.4403 43.6233C94.0396 43.6229 93.6555 43.5016 93.3725 43.2864C93.0895 43.0711 92.9307 42.7794 92.9311 42.4755L92.9561 22.261L71.6934 13.9593C71.337 13.8199 71.0681 13.5789 70.9458 13.2893C70.8235 12.9996 70.8578 12.685 71.0412 12.4148C71.2247 12.1445 71.5422 11.9406 71.9239 11.848C72.3056 11.7555 72.7203 11.7817 73.0767 11.9211L95.9792 20.8643L95.9524 42.4792C95.952 42.7832 95.7925 43.0744 95.5089 43.289C95.2253 43.5036 94.8409 43.6238 94.4403 43.6233Z" fill="#ECF0F1"/>
<path d="M71.0593 16.0901C74.8137 16.0947 77.8591 14.5592 77.8615 12.6605C77.8638 10.7617 74.8222 9.21866 71.0678 9.214C67.3134 9.20934 64.268 10.7448 64.2656 12.6436C64.2633 14.5424 67.3049 16.0854 71.0593 16.0901Z" fill="#203442"/>
<path d="M94.4331 49.3534C97.7703 49.3575 100.478 47.3086 100.481 44.7769C100.485 42.2452 97.7817 40.1895 94.4445 40.1853C91.1072 40.1812 88.3993 42.2302 88.3962 44.7619C88.393 47.2936 91.0958 49.3493 94.4331 49.3534Z" fill="#FACE53"/>
</g>
<defs>
<clipPath id="clip0_32_2">
<rect width="72.5113" height="55.0085" fill="white" transform="translate(34.0682) rotate(0.0710909)"/>
</clipPath>
</defs>
</svg>
